<svg width="158" height="60" viewBox="0 0 158 60" fill="none" xmlns="http://www.w3.org/2000/svg">
<rect width="158" height="60" rx="5" fill="#EE4D47"/>
<path d="M30.6979 35.16C29.1726 35.16 27.9779 34.792 27.1139 34.056C26.2606 33.3093 25.8073 32.232 25.7539 30.824C25.7433 30.536 25.7379 30.0667 25.7379 29.416C25.7379 28.7547 25.7433 28.2747 25.7539 27.976C25.8073 26.5893 26.2713 25.5227 27.1459 24.776C28.0206 24.0187 29.2046 23.64 30.6979 23.64C31.6366 23.64 32.4793 23.8 33.2259 24.12C33.9726 24.4293 34.5593 24.8773 34.9859 25.464C35.4233 26.04 35.6473 26.7173 35.6579 27.496V27.528C35.6579 27.6133 35.6206 27.688 35.5459 27.752C35.4819 27.8053 35.4073 27.832 35.3219 27.832H33.1619C33.0233 27.832 32.9166 27.8053 32.8419 27.752C32.7673 27.688 32.7033 27.576 32.6499 27.416C32.5006 26.872 32.2659 26.4933 31.9459 26.28C31.6259 26.056 31.2046 25.944 30.6819 25.944C29.4233 25.944 28.7726 26.648 28.7299 28.056C28.7193 28.344 28.7139 28.7867 28.7139 29.384C28.7139 29.9813 28.7193 30.4347 28.7299 30.744C28.7726 32.152 29.4233 32.856 30.6819 32.856C31.2046 32.856 31.6313 32.744 31.9619 32.52C32.2926 32.2853 32.5219 31.9067 32.6499 31.384C32.6926 31.224 32.7513 31.1173 32.8259 31.064C32.9006 31 33.0126 30.968 33.1619 30.968H35.3219C35.4179 30.968 35.4979 31 35.5619 31.064C35.6366 31.128 35.6686 31.208 35.6579 31.304C35.6473 32.0827 35.4233 32.7653 34.9859 33.352C34.5593 33.928 33.9726 34.376 33.2259 34.696C32.4793 35.0053 31.6366 35.16 30.6979 35.16ZM42.7163 35.16C41.2123 35.16 40.0283 34.792 39.1643 34.056C38.3003 33.32 37.8416 32.2373 37.7883 30.808C37.7776 30.4987 37.7723 30.04 37.7723 29.432C37.7723 28.8133 37.7776 28.3493 37.7883 28.04C37.8416 26.632 38.3056 25.5493 39.1803 24.792C40.0656 24.024 41.2443 23.64 42.7163 23.64C44.1883 23.64 45.367 24.024 46.2523 24.792C47.1376 25.5493 47.6016 26.632 47.6443 28.04C47.6656 28.6587 47.6763 29.1227 47.6763 29.432C47.6763 29.7307 47.6656 30.1893 47.6443 30.808C47.591 32.2373 47.1323 33.32 46.2683 34.056C45.4043 34.792 44.2203 35.16 42.7163 35.16ZM42.7163 32.856C43.303 32.856 43.767 32.68 44.1083 32.328C44.4603 31.976 44.647 31.4373 44.6683 30.712C44.6896 30.0933 44.7003 29.656 44.7003 29.4C44.7003 29.1227 44.6896 28.6853 44.6683 28.088C44.647 27.3627 44.4603 26.824 44.1083 26.472C43.7563 26.12 43.2923 25.944 42.7163 25.944C42.1403 25.944 41.6763 26.12 41.3243 26.472C40.983 26.824 40.7963 27.3627 40.7643 28.088C40.7536 28.3867 40.7483 28.824 40.7483 29.4C40.7483 29.9653 40.7536 30.4027 40.7643 30.712C40.7963 31.4373 40.983 31.976 41.3243 32.328C41.6656 32.68 42.1296 32.856 42.7163 32.856ZM50.7309 35C50.6243 35 50.5283 34.9627 50.4429 34.888C50.3683 34.8027 50.3309 34.7067 50.3309 34.6V24.2C50.3309 24.0827 50.3683 23.9867 50.4429 23.912C50.5283 23.8373 50.6243 23.8 50.7309 23.8H52.4269C52.6936 23.8 52.8749 23.9013 52.9709 24.104L56.8749 30.248V24.2C56.8749 24.0827 56.9123 23.9867 56.9869 23.912C57.0723 23.8373 57.1683 23.8 57.2749 23.8H59.1949C59.3123 23.8 59.4083 23.8373 59.4829 23.912C59.5576 23.9867 59.5949 24.0827 59.5949 24.2V34.584C59.5949 34.7013 59.5576 34.8027 59.4829 34.888C59.4083 34.9627 59.3123 35 59.1949 35H57.4829C57.2483 35 57.0723 34.8987 56.9549 34.696L53.0509 28.776V34.6C53.0509 34.7067 53.0136 34.8027 52.9389 34.888C52.8643 34.9627 52.7683 35 52.6509 35H50.7309ZM65.4949 35C65.3883 35 65.2923 34.9627 65.2069 34.888C65.1323 34.8027 65.0949 34.7067 65.0949 34.6V26.312H62.2469C62.1403 26.312 62.0443 26.2747 61.9589 26.2C61.8843 26.1147 61.8469 26.0187 61.8469 25.912V24.2C61.8469 24.0827 61.8843 23.9867 61.9589 23.912C62.0443 23.8373 62.1403 23.8 62.2469 23.8H70.8549C70.9723 23.8 71.0683 23.8373 71.1429 23.912C71.2176 23.9867 71.2549 24.0827 71.2549 24.2V25.912C71.2549 26.0293 71.2176 26.1253 71.1429 26.2C71.0683 26.2747 70.9723 26.312 70.8549 26.312H68.0069V34.6C68.0069 34.7067 67.9696 34.8027 67.8949 34.888C67.8203 34.9627 67.7243 35 67.6069 35H65.4949ZM71.7284 35C71.6431 35 71.5631 34.968 71.4884 34.904C71.4244 34.8293 71.3924 34.7493 71.3924 34.664C71.3924 34.6 71.3978 34.552 71.4084 34.52L75.1684 24.248C75.2004 24.12 75.2698 24.0133 75.3764 23.928C75.4831 23.8427 75.6218 23.8 75.7924 23.8H78.1604C78.3311 23.8 78.4698 23.8427 78.5764 23.928C78.6831 24.0133 78.7524 24.12 78.7844 24.248L82.5284 34.52L82.5604 34.664C82.5604 34.7493 82.5231 34.8293 82.4484 34.904C82.3844 34.968 82.3044 35 82.2084 35H80.2404C79.9844 35 79.8138 34.888 79.7284 34.664L79.1044 33.032H74.8324L74.2244 34.664C74.1391 34.888 73.9631 35 73.6964 35H71.7284ZM78.4644 30.728L76.9764 26.504L75.4884 30.728H78.4644ZM88.9792 35.16C87.4539 35.16 86.2592 34.792 85.3952 34.056C84.5419 33.3093 84.0885 32.232 84.0352 30.824C84.0245 30.536 84.0192 30.0667 84.0192 29.416C84.0192 28.7547 84.0245 28.2747 84.0352 27.976C84.0885 26.5893 84.5525 25.5227 85.4272 24.776C86.3019 24.0187 87.4859 23.64 88.9792 23.64C89.9179 23.64 90.7605 23.8 91.5072 24.12C92.2539 24.4293 92.8405 24.8773 93.2672 25.464C93.7045 26.04 93.9285 26.7173 93.9392 27.496V27.528C93.9392 27.6133 93.9019 27.688 93.8272 27.752C93.7632 27.8053 93.6885 27.832 93.6032 27.832H91.4432C91.3045 27.832 91.1979 27.8053 91.1232 27.752C91.0485 27.688 90.9845 27.576 90.9312 27.416C90.7819 26.872 90.5472 26.4933 90.2272 26.28C89.9072 26.056 89.4859 25.944 88.9632 25.944C87.7045 25.944 87.0539 26.648 87.0112 28.056C87.0005 28.344 86.9952 28.7867 86.9952 29.384C86.9952 29.9813 87.0005 30.4347 87.0112 30.744C87.0539 32.152 87.7045 32.856 88.9632 32.856C89.4859 32.856 89.9125 32.744 90.2432 32.52C90.5739 32.2853 90.8032 31.9067 90.9312 31.384C90.9739 31.224 91.0325 31.1173 91.1072 31.064C91.1819 31 91.2939 30.968 91.4432 30.968H93.6032C93.6992 30.968 93.7792 31 93.8432 31.064C93.9179 31.128 93.9499 31.208 93.9392 31.304C93.9285 32.0827 93.7045 32.7653 93.2672 33.352C92.8405 33.928 92.2539 34.376 91.5072 34.696C90.7605 35.0053 89.9179 35.16 88.9792 35.16ZM99.2856 35C99.1789 35 99.0829 34.9627 98.9976 34.888C98.9229 34.8027 98.8856 34.7067 98.8856 34.6V26.312H96.0376C95.9309 26.312 95.8349 26.2747 95.7496 26.2C95.6749 26.1147 95.6376 26.0187 95.6376 25.912V24.2C95.6376 24.0827 95.6749 23.9867 95.7496 23.912C95.8349 23.8373 95.9309 23.8 96.0376 23.8H104.646C104.763 23.8 104.859 23.8373 104.934 23.912C105.008 23.9867 105.046 24.0827 105.046 24.2V25.912C105.046 26.0293 105.008 26.1253 104.934 26.2C104.859 26.2747 104.763 26.312 104.646 26.312H101.798V34.6C101.798 34.7067 101.76 34.8027 101.686 34.888C101.611 34.9627 101.515 35 101.398 35H99.2856ZM115.835 35.16C114.331 35.16 113.152 34.792 112.299 34.056C111.456 33.32 111.035 32.2107 111.035 30.728V24.2C111.035 24.0827 111.072 23.9867 111.147 23.912C111.232 23.8373 111.328 23.8 111.435 23.8H113.499C113.616 23.8 113.712 23.8373 113.787 23.912C113.872 23.9867 113.915 24.0827 113.915 24.2V30.712C113.915 31.4053 114.075 31.928 114.395 32.28C114.726 32.6213 115.2 32.792 115.819 32.792C116.427 32.792 116.896 32.616 117.227 32.264C117.558 31.912 117.723 31.3947 117.723 30.712V24.2C117.723 24.0827 117.76 23.9867 117.835 23.912C117.92 23.8373 118.016 23.8 118.123 23.8H120.203C120.32 23.8 120.416 23.8373 120.491 23.912C120.566 23.9867 120.603 24.0827 120.603 24.2V30.728C120.603 32.2107 120.176 33.32 119.323 34.056C118.48 34.792 117.318 35.16 115.835 35.16ZM127.701 35.16C126.687 35.16 125.818 35.0107 125.093 34.712C124.367 34.4133 123.818 34.024 123.445 33.544C123.082 33.0533 122.89 32.52 122.869 31.944C122.869 31.8587 122.901 31.784 122.965 31.72C123.039 31.6453 123.125 31.608 123.221 31.608H125.237C125.365 31.608 125.466 31.6347 125.541 31.688C125.626 31.7307 125.711 31.8 125.797 31.896C125.935 32.1733 126.159 32.4027 126.469 32.584C126.778 32.7653 127.189 32.856 127.701 32.856C128.309 32.856 128.773 32.76 129.093 32.568C129.413 32.376 129.573 32.1147 129.573 31.784C129.573 31.5493 129.487 31.3573 129.317 31.208C129.157 31.0587 128.901 30.9253 128.549 30.808C128.197 30.6907 127.674 30.5573 126.981 30.408C125.701 30.1413 124.741 29.752 124.101 29.24C123.471 28.7173 123.157 27.976 123.157 27.016C123.157 26.3653 123.338 25.784 123.701 25.272C124.063 24.76 124.581 24.36 125.253 24.072C125.925 23.784 126.709 23.64 127.605 23.64C128.533 23.64 129.338 23.8 130.021 24.12C130.703 24.44 131.221 24.8453 131.573 25.336C131.935 25.816 132.127 26.2907 132.149 26.76C132.149 26.856 132.117 26.936 132.053 27C131.989 27.064 131.909 27.096 131.813 27.096H129.701C129.573 27.096 129.466 27.0747 129.381 27.032C129.306 26.9893 129.237 26.92 129.173 26.824C129.109 26.5787 128.933 26.3707 128.645 26.2C128.367 26.0293 128.021 25.944 127.605 25.944C127.125 25.944 126.757 26.0293 126.501 26.2C126.245 26.3707 126.117 26.6213 126.117 26.952C126.117 27.176 126.186 27.3627 126.325 27.512C126.474 27.6613 126.709 27.8 127.029 27.928C127.359 28.0453 127.829 28.168 128.437 28.296C129.429 28.4773 130.218 28.7067 130.805 28.984C131.402 29.2507 131.839 29.6027 132.117 30.04C132.394 30.4667 132.533 31.0053 132.533 31.656C132.533 32.3707 132.325 32.9947 131.909 33.528C131.503 34.0507 130.933 34.456 130.197 34.744C129.471 35.0213 128.639 35.16 127.701 35.16Z" fill="white"/>
</svg>
