<svg width="1360" height="1500" viewBox="0 0 1360 1500" fill="none" xmlns="http://www.w3.org/2000/svg">
<path d="M1360 0H390C279.543 0 190 89.5431 190 200V1500H1360V0Z" fill="#FDEDE8"/>
<path d="M1124.64 482.85C1190.1 411.439 1213.9 267.131 1124.64 247.294C992.275 217.879 1057.69 321.68 732.872 267.13C531.628 233.334 546.907 433.258 658.486 544.838C770.066 656.417 1042.81 572.113 1124.64 482.85Z" fill="#FCDDD4"/>
<mask id="mask0" mask-type="alpha" maskUnits="userSpaceOnUse" x="577" y="241" width="606" height="358">
<path d="M1124.64 482.849C1190.1 411.438 1213.9 267.131 1124.64 247.294C992.275 217.879 1057.69 321.679 732.872 267.13C531.628 233.334 546.907 433.258 658.486 544.837C770.066 656.417 1042.81 572.112 1124.64 482.849Z" fill="#FCDDD4"/>
</mask>
<g mask="url(#mask0)">
<path opacity="0.7" d="M534.51 450.019C566.973 407.807 652.955 325.492 737.184 333.935C842.469 344.488 642.427 542.359 737.184 542.359C831.94 542.359 876.686 299.637 945.122 299.637C1013.56 299.637 868.79 479.04 945.122 489.593C1021.45 500.146 1084.62 236.318 1168.85 233.68C1253.08 231.042 1081.99 450.019 1218.86 450.019" stroke="url(#paint0_linear)" stroke-width="2"/>
<path d="M1257.97 547.861C1257.97 575.392 1242.13 597.635 1222.64 597.635H1187.31C1167.82 597.635 1152.16 575.209 1152.16 547.861C1152.16 520.33 1168 498.086 1187.49 498.086C1187.85 498.086 1188.04 498.086 1188.4 498.086H1222.64C1242.31 498.086 1257.97 520.512 1257.97 547.861Z" fill="#402B2B"/>
<path d="M981.135 547.314C981.135 574.845 965.289 597.088 945.801 597.088H910.467C890.979 597.088 875.316 574.662 875.316 547.314C875.316 519.783 891.161 497.539 910.649 497.539C911.014 497.539 911.196 497.539 911.56 497.539H945.801C965.471 497.539 981.135 519.783 981.135 547.314Z" fill="#F48767"/>
<path d="M1260.34 543.121L1118.1 542.756L1134.49 533.093L1242.13 533.275L1260.34 543.121Z" fill="#402B2B"/>
<path d="M1394.57 461.987L1394.39 553.331L1278.92 553.149L1242.13 533.276L1134.49 533.093L1101.34 552.784L866.388 552.237C862.563 552.237 859.467 549.138 859.467 545.309L859.649 460.893L1394.57 461.987Z" fill="#F36F49"/>
<path d="M1142.86 482.771L958.545 482.407L958.91 315.216C958.91 308.47 964.374 303 971.295 303L1143.41 303.365L1142.86 482.771Z" fill="#F48767"/>
<path d="M1430.27 483.501L1143.05 482.954L1143.41 303.547L1418.43 304.094C1425.17 304.094 1430.63 309.564 1430.63 316.492L1430.27 483.501Z" fill="#F06A5B"/>
<path d="M1004.45 547.314C1004.45 574.845 1020.11 597.088 1039.6 597.088H1074.75V580.314C1087.68 580.314 1098.24 565.546 1098.24 547.314C1098.24 529.081 1087.86 514.313 1074.93 514.313V497.539H1039.78C1020.29 497.722 1004.63 519.965 1004.45 547.314Z" fill="#F48767"/>
<path d="M1103.89 547.679C1103.89 570.287 1090.96 588.52 1074.93 588.337C1058.9 588.337 1046.15 570.105 1046.15 547.497C1046.15 524.889 1059.08 506.656 1075.11 506.839C1090.96 506.839 1103.89 525.071 1103.89 547.679Z" fill="#F48767"/>
<path d="M1074.93 574.48C1064.37 574.48 1055.99 562.446 1055.99 547.496C1055.99 532.545 1064.55 520.694 1075.11 520.694C1085.68 520.694 1094.06 532.727 1094.06 547.678C1094.06 562.629 1085.5 574.48 1074.93 574.48ZM1074.93 531.634C1068.74 531.634 1063.64 538.744 1063.64 547.496C1063.64 556.247 1068.74 563.54 1074.93 563.54C1081.12 563.54 1086.22 556.43 1086.22 547.678C1086.22 538.744 1081.31 531.634 1074.93 531.634Z" fill="#F7A58D"/>
<path d="M1074.93 597.271C1055.44 597.271 1039.78 574.845 1039.78 547.496C1039.78 520.148 1055.62 497.722 1075.11 497.722C1094.6 497.722 1110.26 520.148 1110.26 547.496C1110.26 574.845 1094.24 597.453 1074.93 597.271ZM1075.11 506.838C1059.09 506.838 1046.15 525.07 1046.15 547.496C1046.15 570.104 1058.9 588.337 1074.93 588.337C1090.96 588.337 1103.89 570.104 1103.89 547.678C1103.89 525.07 1090.96 506.838 1075.11 506.838Z" fill="#F7A58D"/>
<path d="M1079.85 547.496C1079.85 543.667 1077.66 540.75 1075.11 540.75C1072.56 540.75 1070.38 543.85 1070.19 547.496C1070.19 551.325 1072.38 554.242 1074.93 554.242C1077.66 554.425 1079.85 551.325 1079.85 547.496Z" fill="#5B2929"/>
<path d="M836.52 411.119C836.52 411.848 835.974 412.395 835.427 412.577C833.97 412.942 828.506 412.942 826.867 412.395C826.138 412.213 825.41 411.666 825.41 410.754C824.864 396.168 824.864 381.947 825.41 368.455C825.41 367.543 826.138 366.996 826.867 366.814C828.688 366.267 835.063 365.902 837.066 366.632C837.795 366.814 838.341 367.543 838.341 368.273C838.706 382.129 838.159 396.351 836.52 411.119Z" fill="#F69276"/>
<path d="M845.443 424.063C845.261 424.063 845.079 424.063 844.714 423.881L832.329 417.682C829.415 416.223 827.594 413.306 827.594 410.024L827.776 364.261C827.776 362.438 829.233 360.979 831.054 360.979H865.113C866.024 360.979 866.57 361.708 866.57 362.438C866.57 363.349 865.842 363.896 865.113 363.896H831.054C830.872 363.896 830.872 364.078 830.872 364.078L830.69 409.842C830.69 412.03 831.965 413.853 833.786 414.765L846.171 420.964C846.9 421.328 847.264 422.24 846.9 422.969C846.536 423.881 845.989 424.063 845.443 424.063Z" fill="#F69276"/>
<path d="M1118.09 482.406C1118.09 482.406 1113.36 482.406 1106.07 482.406H1077.12C1055.44 482.406 1050.34 493.163 1037.05 519.6L994.973 519.418C994.973 519.418 994.973 516.319 994.973 511.031L834.332 510.667C833.604 497.357 832.146 470.373 832.146 444.848C832.146 443.936 832.146 443.207 832.146 442.295C832.146 435.002 833.421 426.98 835.607 418.958C844.167 387.598 865.841 354.233 874.766 342.017C877.68 338.006 880.23 334.542 882.415 331.442C888.608 323.238 892.797 319.044 900.628 319.044L1095.33 319.591C1099.34 319.591 1102.98 322.326 1104.07 326.155C1120.83 387.78 1118.28 434.637 1118.09 482.406ZM953.993 341.288C954.175 340.376 953.447 339.647 952.536 339.647L893.343 339.464C889.883 339.464 886.422 341.288 884.236 344.387C861.106 375.929 851.817 404.736 848.356 421.328L844.714 438.831C844.167 441.383 845.806 443.389 848.356 443.389H862.745C865.113 443.389 867.662 442.295 869.484 440.472L898.989 412.212C902.268 409.112 906.639 407.289 910.828 407.289H946.162L953.993 341.288Z" fill="#F36F49"/>
<path d="M984.594 419.505C983.319 425.34 981.862 431.357 980.587 437.738C979.676 442.114 975.851 445.213 971.48 445.396C913.926 447.401 866.207 447.583 832.149 445.031C832.149 444.119 832.149 443.39 832.149 442.478C832.149 435.185 833.424 427.163 835.609 419.141L984.594 419.505Z" fill="#F6977C"/>
<path d="M1090.96 339.83L1031.77 339.647C1028.31 339.647 1025.21 341.47 1023.57 344.57C1007 376.112 1003.54 404.919 1003.54 421.511V439.014C1003.54 441.566 1005.54 443.572 1008.09 443.572H1022.48C1024.85 443.572 1027.21 442.478 1028.67 440.655L1052.35 412.395C1055.08 409.295 1058.9 407.289 1063.09 407.472H1098.43L1092.78 341.47C1092.78 340.559 1092.05 339.83 1090.96 339.83Z" fill="#F36F49"/>
<path d="M1118.09 482.406C1118.09 482.406 1113.36 482.406 1106.07 482.406H1077.12C1055.44 482.406 1050.34 493.163 1037.05 519.6L994.973 519.418C994.973 519.418 994.973 516.319 994.973 511.031L834.332 510.667C833.604 497.357 832.146 470.373 832.146 444.848C866.205 447.4 914.106 447.4 971.478 445.212C975.849 445.03 979.674 441.93 980.585 437.555C981.86 431.173 983.317 424.974 984.592 419.322C992.423 385.957 1000.98 362.073 1012.28 336.183C1013.19 334.177 1011.73 331.807 1009.54 331.807L882.415 331.442C888.608 323.238 892.797 319.044 900.628 319.044L1095.33 319.591C1099.34 319.591 1102.98 322.326 1104.07 326.155C1120.83 387.78 1118.28 434.637 1118.09 482.406ZM1098.61 407.471L1092.96 341.47C1092.96 340.558 1092.05 339.829 1091.14 339.829L1031.95 339.647C1028.49 339.647 1025.39 341.47 1023.75 344.57C1007.18 376.112 1003.72 404.919 1003.72 421.51V439.013C1003.72 441.566 1005.72 443.571 1008.27 443.571H1022.66C1025.03 443.571 1027.39 442.477 1028.85 440.654L1052.53 412.394C1055.26 409.294 1059.08 407.289 1063.27 407.471H1098.61Z" fill="#F7A58D"/>
<path d="M1110.99 477.666C1110.99 480.401 1108.81 482.407 1106.08 482.407H1077.12C1055.44 482.407 1050.34 493.164 1037.05 519.601L994.975 519.419C994.975 519.419 994.975 516.319 994.975 511.032L995.157 437.191C995.157 400.543 1001.71 377.388 1019.02 340.741C1021.57 335.272 1027.21 331.807 1033.22 331.807L1095.88 331.99C1097.33 331.99 1098.43 332.901 1098.79 334.178C1111.18 381.217 1111.18 457.793 1110.99 477.666ZM1098.61 407.472L1092.96 341.471C1092.96 340.559 1092.05 339.83 1091.14 339.83L1031.95 339.647C1028.49 339.647 1025.39 341.471 1023.75 344.57C1007.18 376.112 1003.72 404.919 1003.72 421.511V439.014C1003.72 441.566 1005.72 443.572 1008.27 443.572H1022.66C1025.03 443.572 1027.39 442.478 1028.85 440.655L1052.53 412.394C1055.26 409.295 1059.09 407.289 1063.28 407.472H1098.61Z" fill="#F58A6B"/>
<path d="M1090.6 342.017L1031.77 341.835C1029.22 341.835 1026.85 343.294 1025.57 345.482C1008.45 378.118 1005.72 407.107 1005.72 421.328V438.831C1005.72 440.108 1006.81 441.202 1008.09 441.202H1022.48C1024.3 441.202 1025.94 440.472 1027.03 439.196L1050.71 410.936C1053.8 407.289 1058.36 405.102 1063.28 405.102H1096.06L1090.6 342.017ZM1090.96 339.83C1091.87 339.83 1092.78 340.559 1092.78 341.47L1098.43 407.472H1063.09C1058.9 407.472 1055.08 409.295 1052.35 412.395L1028.67 440.655C1027.21 442.478 1024.85 443.572 1022.48 443.572H1008.09C1005.54 443.572 1003.54 441.566 1003.54 439.014V421.511C1003.54 404.919 1007 376.112 1023.57 344.57C1025.21 341.47 1028.31 339.647 1031.77 339.647L1090.96 339.83Z" fill="#F7A58D"/>
<path d="M995.155 476.208V511.031L931.591 510.849C932.319 501.733 933.959 492.981 936.691 484.777C937.783 481.495 940.515 479.125 943.976 478.578C958 476.937 975.849 476.208 995.155 476.208ZM866.569 510.849H835.061C834.514 503.192 833.968 490.793 833.421 476.755C841.071 477.119 848.174 477.848 854.549 478.76C858.009 479.307 860.741 481.677 861.834 484.959C864.384 492.981 865.841 501.733 866.569 510.849Z" fill="#F6977C"/>
<path d="M994.974 546.038L847.628 545.673C837.611 545.673 829.415 537.469 829.415 527.441V524.341C829.415 521.424 831.783 519.236 834.515 519.236L994.791 519.601L994.974 546.038Z" fill="#F6977C"/>
<path d="M1022.11 546.038H994.974V519.601H1036.68L1032.13 538.016C1031.04 542.756 1026.85 546.038 1022.11 546.038Z" fill="#F7A58D"/>
<path d="M1086.95 449.589C1080.76 449.771 1068.74 451.048 1068.74 455.423C1068.74 459.799 1079.3 461.258 1087.86 461.258C1096.42 461.258 1097.33 456.517 1098.06 454.512C1098.61 452.506 1099.15 449.407 1086.95 449.589Z" fill="#F6977C"/>
<path d="M1086.4 454.329C1089.32 454.329 1092.42 453.418 1093.87 451.959C1092.78 451.412 1091.14 450.865 1088.59 450.865C1083.85 450.865 1076.21 451.412 1072.2 453.235C1072.74 453.6 1074.2 454.329 1076.57 454.329C1079.48 454.329 1083.31 454.329 1086.4 454.329Z" fill="#F47B58"/>
<path d="M1074.2 457.794C1073.11 457.794 1072.56 457.976 1072.38 458.158C1075.66 459.617 1081.67 460.164 1084.58 460.164C1088.77 460.164 1091.69 460.164 1092.6 459.252C1091.87 458.705 1090.23 457.794 1088.59 457.794C1086.4 457.976 1075.66 457.794 1074.2 457.794Z" fill="#F47B58"/>
<path d="M994.974 511.214C994.974 516.501 994.974 519.601 994.974 519.601L834.879 519.236C834.879 519.236 834.697 516.136 834.333 510.849L994.974 511.214Z" fill="#F58A6B"/>
<g opacity="0.2">
<path d="M925.944 474.384V509.208L872.215 509.026V474.202C872.215 470.008 876.04 466.727 880.775 466.727H917.566C922.12 466.909 925.944 470.373 925.944 474.384Z" fill="#F16036"/>
</g>
<path d="M854.184 507.932H842.892C839.978 507.932 837.428 505.562 837.428 502.462V496.81C837.428 493.893 839.796 491.341 842.892 491.341H854.184C857.099 491.341 859.648 493.711 859.648 496.81V502.462C859.648 505.562 857.099 507.932 854.184 507.932Z" fill="white"/>
<path d="M961.099 508.297H949.807C946.893 508.297 944.343 505.927 944.343 502.827V497.175C944.343 494.258 946.711 491.706 949.807 491.706H961.099C964.014 491.706 966.563 494.076 966.563 497.175V502.827C966.563 505.745 964.196 508.297 961.099 508.297Z" fill="white"/>
<path d="M1033.95 411.483C1033.95 412.213 1033.41 412.76 1032.86 412.942C1025.76 413.671 1018.29 413.671 1010.64 412.76C1009.73 412.577 1009.18 412.03 1009.18 411.119C1008.63 396.533 1008.63 382.312 1009.18 368.82C1009.18 367.908 1009.91 367.361 1010.64 367.179C1018.47 366.267 1026.3 366.267 1034.5 367.179C1035.23 367.361 1035.77 368.09 1035.77 368.82C1036.32 382.494 1035.59 396.715 1033.95 411.483Z" fill="#F7A58D"/>
<path d="M1005.72 424.428C1005.18 424.428 1004.63 424.064 1004.45 423.517C1004.08 422.788 1004.45 421.876 1005.18 421.511L1017.56 415.495C1019.38 414.583 1020.66 412.577 1020.66 410.572L1020.84 364.808C1020.84 364.626 1020.66 364.626 1020.66 364.626H1013.01C1012.1 364.626 1011.55 363.897 1011.55 363.168C1011.55 362.256 1012.28 361.709 1013.01 361.709H1020.66C1022.48 361.709 1023.94 363.168 1023.94 364.991L1023.75 410.754C1023.75 414.036 1021.93 416.953 1019.02 418.412L1006.63 424.428C1006.09 424.428 1005.9 424.428 1005.72 424.428Z" fill="#F69276"/>
<path d="M922.189 548.197L870.646 548.085L870.679 532.587L922.223 532.699L922.189 548.197Z" fill="#F8B4A0"/>
<path opacity="0.6" d="M1012.63 336.734C1001.34 362.624 992.957 386.509 984.943 419.874L835.959 419.509C844.519 388.15 866.193 354.784 875.117 342.569C878.031 338.558 880.581 335.093 882.767 331.994L1009.9 332.359C1012.08 332.541 1013.54 334.729 1012.63 336.734Z" fill="url(#paint1_linear)"/>
<path d="M771.305 354.535C771.305 354.535 767.099 485.393 771.19 632.503C771.19 632.503 783.462 644.134 806.714 636.38C806.714 636.38 806.498 472.685 812.742 407.638C812.742 407.638 842.022 531.271 879.053 638.319C879.053 638.319 903.812 643.057 912.639 629.057C912.639 629.057 862.69 455.669 855.37 355.944L771.305 354.535Z" fill="url(#paint2_linear)"/>
<path d="M771.619 355.944H855.369C856.015 363.482 856.661 371.452 857.737 379.637C807.789 379.852 781.308 367.144 771.404 361.329C771.404 357.667 771.619 355.944 771.619 355.944Z" fill="#402B2B" fill-opacity="0.45" style="mix-blend-mode:multiply"/>
</g>
<path d="M780.021 139.045H800.689L803.488 126.552C803.488 126.552 795.307 131.291 793.369 128.06C791.432 124.829 791.862 126.122 789.925 126.552C787.987 126.983 787.987 124.399 785.619 125.906C783.035 127.629 779.16 135.814 780.021 139.045Z" fill="#6B1912"/>
<path d="M739.632 295.023L751.41 266.508L784.528 278.922C783.386 288.056 763.187 305.561 751.41 317.959L739.632 295.023Z" fill="url(#paint3_linear)"/>
<path d="M767.216 211.923C767.216 211.923 749.081 244.814 738.452 293.165C735.182 308.043 735.973 315.729 740.932 319.201C747.131 323.54 758.287 319.82 763.866 308.043C769.547 295.026 780.048 266.792 782.404 253.222C782.404 253.222 778.328 214.362 767.216 211.923Z" fill="url(#paint4_linear)"/>
<path d="M767.104 211.415C767.104 211.415 768.181 236.184 771.41 355.295C771.41 355.295 800.69 370.156 859.035 359.818C859.035 359.818 859.251 324.063 867.216 292.401C867.216 292.401 882.072 232.738 874.536 215.292C874.536 215.292 826.956 185.783 767.104 211.415Z" fill="url(#paint5_linear)"/>
<path d="M812.315 187.808L811.884 203.23C811.884 203.23 815.544 208.615 824.371 209.261C833.198 209.692 837.504 204.738 837.504 204.738L838.365 181.777C827.385 186.515 816.621 188.454 812.315 187.808Z" fill="url(#paint6_linear)"/>
<path d="M813.177 181.476L812.316 198.492C816.622 199.138 827.386 197.199 838.151 192.461L838.797 181.476H813.177Z" fill="url(#paint7_linear)" style="mix-blend-mode:multiply"/>
<path d="M871.522 248.892C871.522 248.892 858.82 277.539 854.298 290.462C849.777 303.17 849.777 353.786 826.095 363.479C826.095 363.479 851.284 361.971 859.25 359.817C859.25 359.817 859.681 321.693 867.431 292.4C867.431 292.4 872.814 261.6 874.967 247.6L871.522 248.892Z" fill="#EE4D47" fill-opacity="0.29" style="mix-blend-mode:multiply"/>
<path d="M854.729 144C854.299 144.215 853.868 151.107 853.868 151.107L852.146 165.538L844.18 171.785L839.659 173.723C839.659 173.723 832.985 170.923 833.846 168.338C834.707 165.969 839.013 131.938 839.874 131.938C840.735 131.938 847.625 136.892 847.625 136.892L854.729 144Z" fill="#402B2B"/>
<path d="M791.649 131.075C789.711 131.075 792.725 154.768 792.725 154.768L796.17 145.291L798.538 133.875L791.649 131.075Z" fill="#402B2B"/>
<path d="M794.878 135.812L791.218 166.182C791.218 166.182 789.926 191.814 811.025 193.321C832.124 194.614 846.549 173.721 846.549 173.721C846.549 173.721 849.132 176.736 851.931 171.567C854.514 166.398 852.792 159.505 849.132 158.859C845.257 158.428 843.534 160.582 843.104 163.813C842.673 167.044 842.243 169.413 842.243 169.413L839.013 168.982L841.381 143.997C841.381 143.997 836.43 134.305 830.832 132.366C825.234 130.428 820.283 138.182 820.283 138.182C820.283 138.182 815.116 139.259 810.164 138.182C805.212 137.105 801.983 135.812 801.983 135.812C801.983 135.812 798.968 136.674 794.878 135.812Z" fill="url(#paint8_linear)"/>
<path d="M810.977 311.76C810.977 311.76 778.124 306.801 778.124 301.842C778.124 296.883 784.942 285.105 789.901 271.468C794.86 257.831 799.2 236.135 801.059 231.795C802.919 227.456 795.48 239.854 795.48 239.854C783.289 255.764 758.411 288.701 756.428 293.164C754.444 297.627 753.535 308.248 753.328 313L762.007 317.959L787.422 314.86L810.977 311.76Z" fill="#EE4D47" fill-opacity="0.29" style="mix-blend-mode:multiply"/>
<path d="M800.38 180.345C800.38 177.866 802.907 174.16 807.199 175.386C811.538 176.626 812.571 180.345 812.778 182.825" stroke="#893D43"/>
<path d="M794.182 216.299C794.182 216.299 740.253 285.745 739.013 296.884C737.773 308.023 736.871 319.009 748.142 320.365C759.412 321.722 770.119 303.975 774.064 294.932L783.024 272.088L801.62 226.837L794.182 216.299Z" fill="url(#paint9_linear)"/>
<path d="M801.679 231.175C801.679 224.976 794.24 222.497 788.041 222.497L749.609 275.807C741.757 286.758 728.285 312.008 742.17 320.439C756.056 328.869 771.511 307.421 776.884 296.263C779.859 289.32 794.654 249.978 801.679 231.175Z" fill="url(#paint10_linear)"/>
<path d="M794.241 217.538C794.241 217.538 790.453 202.816 794.477 193.237C794.477 193.237 796.673 188.953 799.041 190.794C801.678 192.492 803.75 188.62 806.387 190.317C809.023 192.015 811.133 189.504 813.746 192.769C813.746 192.769 816.719 191.869 818.425 194.41C820.132 196.951 824.039 202.632 823.19 203.949C822.341 205.267 819.459 211.818 818.715 212.043C817.972 212.268 816.611 212.306 815.997 209.871C815.997 209.871 815.93 212.325 814.645 215.085C813.565 217.907 810.051 221.342 810.051 221.342L801.059 227.455L794.241 217.538Z" fill="url(#paint11_linear)"/>
<path d="M817.051 128.06V106.09C830.184 106.736 843.748 109.321 850.422 117.506C858.388 127.198 853.867 149.599 853.867 149.599C853.867 149.599 844.178 148.522 842.456 145.291C840.734 142.06 824.371 137.537 811.884 138.183C799.397 138.829 793.369 137.537 787.125 132.152C785.833 131.075 784.757 129.567 783.896 127.844H817.051V128.06Z" fill="#402B2B"/>
<path d="M855.374 141.414C855.374 141.414 846.116 138.398 830.615 137.106C804.564 126.121 793.369 128.06 793.369 128.06C793.369 128.06 793.584 119.66 795.952 113.844C798.321 108.029 814.253 99.8439 827.601 101.136C840.949 102.429 854.728 112.336 856.881 121.813C858.603 129.137 855.374 141.414 855.374 141.414Z" fill="url(#paint12_linear)"/>
<path d="M839.658 138.186C836.859 124.832 816.837 118.155 802.627 118.37C788.633 118.585 778.73 130.216 777.223 138.186C776.577 141.417 779.16 141.847 780.022 139.047C780.667 137.109 781.959 127.847 794.877 128.924C807.795 130.001 807.149 141.632 813.608 142.709C819.636 143.786 826.525 139.478 839.658 138.186Z" fill="url(#paint13_linear)"/>
<path d="M795.543 146.1L794.872 144.75C795.451 144.462 799.598 141.68 805.571 140.155L806.433 142.373C801.327 143.226 795.543 146.1 795.543 146.1Z" fill="#402B2B"/>
<path d="M832.193 151.767C829.613 148.162 823.459 144.055 823.551 143.86L825.252 142.282C825.446 142.374 830.925 146.399 833.617 150.773L832.193 151.767Z" fill="#402B2B"/>
<path d="M811.241 153.907C811.241 153.907 810.595 158.43 808.873 159.722C807.151 161.015 804.136 162.092 803.706 163.169C803.275 164.03 804.136 165.753 806.074 166.4C808.012 167.046 808.227 167.692 808.227 167.692C808.227 167.692 804.352 168.123 802.414 165.753C800.476 163.384 802.629 161.446 804.567 160.369C806.505 159.292 807.366 158.861 808.227 158.215C809.304 157.569 811.241 153.907 811.241 153.907Z" fill="#D87C60"/>
<path d="M820.496 156.274C820.496 158.428 822.003 160.366 823.941 160.366C825.879 160.366 827.386 158.643 827.386 156.274C827.386 154.12 825.879 152.181 823.941 152.181C822.003 152.181 820.496 153.904 820.496 156.274Z" fill="#402B2B"/>
<path d="M796.815 153.474C796.815 155.628 798.322 157.567 800.259 157.567C802.197 157.567 803.704 155.844 803.704 153.474C803.704 151.321 802.197 149.382 800.259 149.382C798.322 149.597 796.815 151.321 796.815 153.474Z" fill="#402B2B"/>
<path d="M785.136 321.68C783.483 318.993 780.425 311.513 781.416 303.083C783.483 305.976 787.119 313.745 785.136 321.68Z" fill="#644545"/>
<path fill-rule="evenodd" clip-rule="evenodd" d="M860.111 311.571C875.828 288.739 877.98 219.6 877.98 219.6C863.519 221.48 856.612 235.795 852.175 244.992C850.007 249.486 848.428 252.758 846.846 252.758L840.186 295.098L773.583 306.991C773.528 307.068 773.473 307.145 773.418 307.221C770.138 307.307 758.753 307.949 751.317 312.684C751.317 312.684 747.465 315.571 749.679 317.595C750.738 318.752 750.401 320.004 750.063 321.256C749.726 322.508 749.389 323.759 750.448 324.916C751.341 325.891 751.481 326.901 751.618 327.894C751.806 329.255 751.99 330.586 754.105 331.756C754.105 331.756 753.719 334.838 756.511 336.092C756.638 336.149 756.772 336.209 756.912 336.272C759.861 337.6 765.614 340.191 766.717 339.18C767.132 338.8 768.167 338.049 769.327 337.206C771.401 335.699 773.879 333.9 773.941 333.406C774.037 332.635 773.845 331.287 771.341 331.092C771.341 331.092 773.749 330.612 776.253 328.88C778.853 327.341 781.646 323.297 781.646 323.297L784.18 317.509C845.887 322.769 860.111 311.571 860.111 311.571Z" fill="url(#paint14_linear)"/>
<path d="M842.027 251.263L835.998 282.925L833.294 290.894L781.223 303.083C782.67 305.769 785.439 313.249 784.943 321.68C796.514 322.919 828.707 323.043 850.031 318.58C855.759 317.48 862.428 311.761 870.876 290.894C890.037 224.985 874.536 215.293 874.536 215.293C853.007 218.093 842.027 251.263 842.027 251.263Z" fill="url(#paint15_linear)"/>
<path d="M704.977 279.527C704.977 279.527 729.678 304.943 709.317 310.522C688.955 316.101 669.69 299.686 643.655 304.135C599.023 311.761 525.736 321.679 486.063 247.293C436.473 154.31 565.89 117.117 631.116 117.117C709.363 117.118 740.216 150.591 747.655 196.463C753.606 233.16 721.094 268.369 704.977 279.527Z" fill="url(#paint16_linear)"/>
<path d="M610.914 228.236L612.108 202.658C616.888 201.418 620.879 199.142 624.081 195.831C627.282 192.52 629.135 188.32 629.638 183.231C630.231 177.243 629.616 172.446 627.792 168.839C625.979 165.133 623.453 163.119 620.214 162.799C617.369 162.517 615.062 163.297 613.294 165.137C611.624 166.987 610.18 169.565 608.961 172.871L606.336 179.866C605.117 183.172 603.354 185.466 601.047 186.75C598.848 187.943 596.585 188.273 594.26 187.741C592.032 187.218 590.173 185.976 588.683 184.015C587.202 181.953 586.619 179.326 586.936 176.133C587.331 172.141 589.094 168.839 592.227 166.226C595.457 163.624 599.409 161.747 604.081 160.598C608.753 159.448 613.543 159.115 618.45 159.601C628.362 160.582 635.902 163.495 641.072 168.339C646.339 173.194 648.548 179.912 647.699 188.495C647.116 194.382 645.199 199.231 641.948 203.041C638.697 206.851 634.686 209.83 629.915 211.978C625.252 214.036 620.447 215.525 615.5 216.446L613.564 228.499L610.914 228.236ZM607.506 264.177C603.973 263.827 601.054 262.279 598.75 259.531C596.543 256.794 595.618 253.628 595.973 250.036C596.319 246.543 597.842 243.671 600.542 241.419C603.351 239.076 606.521 238.08 610.054 238.43C613.685 238.789 616.55 240.383 618.649 243.21C620.855 245.948 621.786 249.063 621.44 252.556C621.084 256.149 619.556 259.071 616.856 261.323C614.254 263.585 611.137 264.536 607.506 264.177Z" fill="white"/>
<defs>
<linearGradient id="paint0_linear" x1="876.686" y1="306.737" x2="876.686" y2="610.4" gradientUnits="userSpaceOnUse">
<stop stop-color="#F37753"/>
<stop offset="1" stop-color="white" stop-opacity="0"/>
</linearGradient>
<linearGradient id="paint1_linear" x1="943.128" y1="304.103" x2="871.756" y2="475.02" gradientUnits="userSpaceOnUse">
<stop stop-color="#F7A58D"/>
<stop offset="0.926161" stop-color="white"/>
</linearGradient>
<linearGradient id="paint2_linear" x1="841.058" y1="275.86" x2="841.058" y2="639.091" gradientUnits="userSpaceOnUse">
<stop stop-color="#822626"/>
<stop offset="0.943497" stop-color="#402B2B"/>
</linearGradient>
<linearGradient id="paint3_linear" x1="758.001" y1="270.358" x2="758.001" y2="326.997" gradientUnits="userSpaceOnUse">
<stop stop-color="#FFB3B6"/>
<stop offset="1" stop-color="#FFC8C1"/>
</linearGradient>
<linearGradient id="paint4_linear" x1="782.463" y1="216.92" x2="782.463" y2="328.499" gradientUnits="userSpaceOnUse">
<stop stop-color="#F4A984"/>
<stop offset="1" stop-color="#EE4D47"/>
</linearGradient>
<linearGradient id="paint5_linear" x1="821.887" y1="139.058" x2="821.887" y2="357.894" gradientUnits="userSpaceOnUse">
<stop stop-color="#F4A984"/>
<stop offset="1" stop-color="#EE4D47"/>
</linearGradient>
<linearGradient id="paint6_linear" x1="833.947" y1="202.119" x2="812.16" y2="211.516" gradientUnits="userSpaceOnUse">
<stop stop-color="#FFB3B6"/>
<stop offset="1" stop-color="#FFC8C1"/>
</linearGradient>
<linearGradient id="paint7_linear" x1="834.379" y1="191.313" x2="812.469" y2="200.591" gradientUnits="userSpaceOnUse">
<stop stop-color="#FFB3B6" stop-opacity="0.31"/>
<stop offset="1" stop-color="#FFC8C1"/>
</linearGradient>
<linearGradient id="paint8_linear" x1="788.412" y1="185.947" x2="793.072" y2="144.304" gradientUnits="userSpaceOnUse">
<stop stop-color="#FFB3B6"/>
<stop offset="1" stop-color="#FFC8C1"/>
</linearGradient>
<linearGradient id="paint9_linear" x1="777.657" y1="191.503" x2="777.657" y2="318.367" gradientUnits="userSpaceOnUse">
<stop stop-color="#FFB3B6"/>
<stop offset="1" stop-color="#FFC8C1"/>
</linearGradient>
<linearGradient id="paint10_linear" x1="750.848" y1="248.532" x2="797.29" y2="316.753" gradientUnits="userSpaceOnUse">
<stop stop-color="#F4A984"/>
<stop offset="0.91698" stop-color="#EE4D47"/>
</linearGradient>
<linearGradient id="paint11_linear" x1="804.5" y1="215" x2="822" y2="185" gradientUnits="userSpaceOnUse">
<stop stop-color="#FFB3B6"/>
<stop offset="1" stop-color="#FFC8C1"/>
</linearGradient>
<linearGradient id="paint12_linear" x1="825.378" y1="79.2979" x2="825.378" y2="141.924" gradientUnits="userSpaceOnUse">
<stop stop-color="#F4A984"/>
<stop offset="1" stop-color="#EE4D47"/>
</linearGradient>
<linearGradient id="paint13_linear" x1="827.015" y1="112.164" x2="827.015" y2="177.27" gradientUnits="userSpaceOnUse">
<stop stop-color="#F4A984"/>
<stop offset="1" stop-color="#EE4D47"/>
</linearGradient>
<linearGradient id="paint14_linear" x1="856.777" y1="279.577" x2="745.166" y2="316.78" gradientUnits="userSpaceOnUse">
<stop stop-color="#FFB3B6"/>
<stop offset="1" stop-color="#FFC8C1"/>
</linearGradient>
<linearGradient id="paint15_linear" x1="823.995" y1="254.112" x2="871.107" y2="325.399" gradientUnits="userSpaceOnUse">
<stop stop-color="#F4A984"/>
<stop offset="1" stop-color="#EE4D47"/>
</linearGradient>
<linearGradient id="paint16_linear" x1="514.673" y1="-5.6198" x2="743.334" y2="327.785" gradientUnits="userSpaceOnUse">
<stop stop-color="#F4A984"/>
<stop offset="1" stop-color="#EE4D47"/>
</linearGradient>
</defs>
</svg>
