<svg width="550" height="90" viewBox="0 0 550 90" fill="none" xmlns="http://www.w3.org/2000/svg">
<rect opacity="0.2" width="550" height="90" rx="10" fill="#ED4D47"/>
<path d="M220.912 51C220.792 51 220.684 50.958 220.588 50.874C220.504 50.778 220.462 50.67 220.462 50.55V38.85C220.462 38.718 220.504 38.61 220.588 38.526C220.684 38.442 220.792 38.4 220.912 38.4H223.288C223.42 38.4 223.528 38.442 223.612 38.526C223.696 38.61 223.738 38.718 223.738 38.85V48.282H229.192C229.324 48.282 229.432 48.33 229.516 48.426C229.6 48.51 229.642 48.618 229.642 48.75V50.55C229.642 50.67 229.6 50.778 229.516 50.874C229.432 50.958 229.324 51 229.192 51H220.912ZM237.092 51.18C235.4 51.18 234.068 50.766 233.096 49.938C232.124 49.11 231.608 47.892 231.548 46.284C231.536 45.936 231.53 45.42 231.53 44.736C231.53 44.04 231.536 43.518 231.548 43.17C231.608 41.586 232.13 40.368 233.114 39.516C234.11 38.652 235.436 38.22 237.092 38.22C238.748 38.22 240.074 38.652 241.07 39.516C242.066 40.368 242.588 41.586 242.636 43.17C242.66 43.866 242.672 44.388 242.672 44.736C242.672 45.072 242.66 45.588 242.636 46.284C242.576 47.892 242.06 49.11 241.088 49.938C240.116 50.766 238.784 51.18 237.092 51.18ZM237.092 48.588C237.752 48.588 238.274 48.39 238.658 47.994C239.054 47.598 239.264 46.992 239.288 46.176C239.312 45.48 239.324 44.988 239.324 44.7C239.324 44.388 239.312 43.896 239.288 43.224C239.264 42.408 239.054 41.802 238.658 41.406C238.262 41.01 237.74 40.812 237.092 40.812C236.444 40.812 235.922 41.01 235.526 41.406C235.142 41.802 234.932 42.408 234.896 43.224C234.884 43.56 234.878 44.052 234.878 44.7C234.878 45.336 234.884 45.828 234.896 46.176C234.932 46.992 235.142 47.598 235.526 47.994C235.91 48.39 236.432 48.588 237.092 48.588ZM244.675 51C244.579 51 244.489 50.964 244.405 50.892C244.333 50.808 244.297 50.718 244.297 50.622C244.297 50.55 244.303 50.496 244.315 50.46L248.545 38.904C248.581 38.76 248.659 38.64 248.779 38.544C248.899 38.448 249.055 38.4 249.247 38.4H251.911C252.103 38.4 252.259 38.448 252.379 38.544C252.499 38.64 252.577 38.76 252.613 38.904L256.825 50.46L256.861 50.622C256.861 50.718 256.819 50.808 256.735 50.892C256.663 50.964 256.573 51 256.465 51H254.251C253.963 51 253.771 50.874 253.675 50.622L252.973 48.786H248.167L247.483 50.622C247.387 50.874 247.189 51 246.889 51H244.675ZM252.253 46.194L250.579 41.442L248.905 46.194H252.253ZM259.629 51C259.509 51 259.401 50.958 259.305 50.874C259.221 50.778 259.179 50.67 259.179 50.55V38.85C259.179 38.718 259.221 38.61 259.305 38.526C259.401 38.442 259.509 38.4 259.629 38.4H264.309C266.073 38.4 267.441 38.82 268.413 39.66C269.385 40.5 269.895 41.718 269.943 43.314C269.955 43.662 269.961 44.124 269.961 44.7C269.961 45.276 269.955 45.732 269.943 46.068C269.883 47.736 269.385 48.978 268.449 49.794C267.525 50.598 266.175 51 264.399 51H259.629ZM264.309 48.408C265.101 48.408 265.683 48.222 266.055 47.85C266.427 47.466 266.625 46.86 266.649 46.032C266.673 45.684 266.685 45.234 266.685 44.682C266.685 44.13 266.673 43.686 266.649 43.35C266.625 42.546 266.409 41.952 266.001 41.568C265.605 41.184 265.011 40.992 264.219 40.992H262.419V48.408H264.309ZM278.146 51C278.026 51 277.918 50.958 277.822 50.874C277.738 50.778 277.696 50.67 277.696 50.55V38.85C277.696 38.718 277.738 38.61 277.822 38.526C277.918 38.442 278.026 38.4 278.146 38.4H280.09C280.378 38.4 280.588 38.532 280.72 38.796L283.888 44.466L287.056 38.796C287.188 38.532 287.398 38.4 287.686 38.4H289.612C289.744 38.4 289.852 38.442 289.936 38.526C290.032 38.61 290.08 38.718 290.08 38.85V50.55C290.08 50.682 290.032 50.79 289.936 50.874C289.852 50.958 289.744 51 289.612 51H287.47C287.338 51 287.224 50.958 287.128 50.874C287.044 50.79 287.002 50.682 287.002 50.55V43.8L284.986 47.562C284.83 47.838 284.62 47.976 284.356 47.976H283.42C283.264 47.976 283.138 47.94 283.042 47.868C282.946 47.796 282.862 47.694 282.79 47.562L280.756 43.8V50.55C280.756 50.67 280.714 50.778 280.63 50.874C280.546 50.958 280.438 51 280.306 51H278.146ZM298.65 51.18C296.958 51.18 295.626 50.766 294.654 49.938C293.682 49.11 293.166 47.892 293.106 46.284C293.094 45.936 293.088 45.42 293.088 44.736C293.088 44.04 293.094 43.518 293.106 43.17C293.166 41.586 293.688 40.368 294.672 39.516C295.668 38.652 296.994 38.22 298.65 38.22C300.306 38.22 301.632 38.652 302.628 39.516C303.624 40.368 304.146 41.586 304.194 43.17C304.218 43.866 304.23 44.388 304.23 44.736C304.23 45.072 304.218 45.588 304.194 46.284C304.134 47.892 303.618 49.11 302.646 49.938C301.674 50.766 300.342 51.18 298.65 51.18ZM298.65 48.588C299.31 48.588 299.832 48.39 300.216 47.994C300.612 47.598 300.822 46.992 300.846 46.176C300.87 45.48 300.882 44.988 300.882 44.7C300.882 44.388 300.87 43.896 300.846 43.224C300.822 42.408 300.612 41.802 300.216 41.406C299.82 41.01 299.298 40.812 298.65 40.812C298.002 40.812 297.48 41.01 297.084 41.406C296.7 41.802 296.49 42.408 296.454 43.224C296.442 43.56 296.436 44.052 296.436 44.7C296.436 45.336 296.442 45.828 296.454 46.176C296.49 46.992 296.7 47.598 297.084 47.994C297.468 48.39 297.99 48.588 298.65 48.588ZM307.667 51C307.547 51 307.439 50.958 307.343 50.874C307.259 50.778 307.217 50.67 307.217 50.55V38.85C307.217 38.718 307.259 38.61 307.343 38.526C307.439 38.442 307.547 38.4 307.667 38.4H312.563C314.135 38.4 315.359 38.76 316.235 39.48C317.123 40.188 317.567 41.196 317.567 42.504C317.567 43.344 317.369 44.058 316.973 44.646C316.577 45.234 316.031 45.684 315.335 45.996L317.801 50.424C317.837 50.496 317.855 50.562 317.855 50.622C317.855 50.718 317.813 50.808 317.729 50.892C317.657 50.964 317.573 51 317.477 51H315.083C314.735 51 314.489 50.838 314.345 50.514L312.293 46.554H310.457V50.55C310.457 50.682 310.409 50.79 310.313 50.874C310.229 50.958 310.121 51 309.989 51H307.667ZM312.527 43.998C313.079 43.998 313.499 43.866 313.787 43.602C314.075 43.326 314.219 42.948 314.219 42.468C314.219 41.988 314.075 41.61 313.787 41.334C313.511 41.046 313.091 40.902 312.527 40.902H310.457V43.998H312.527ZM321.012 51C320.892 51 320.784 50.958 320.688 50.874C320.604 50.778 320.562 50.67 320.562 50.55V38.85C320.562 38.718 320.604 38.61 320.688 38.526C320.784 38.442 320.892 38.4 321.012 38.4H329.418C329.55 38.4 329.658 38.442 329.742 38.526C329.826 38.61 329.868 38.718 329.868 38.85V40.542C329.868 40.662 329.826 40.77 329.742 40.866C329.658 40.95 329.55 40.992 329.418 40.992H323.676V43.422H329.022C329.154 43.422 329.262 43.47 329.346 43.566C329.43 43.65 329.472 43.758 329.472 43.89V45.456C329.472 45.576 329.43 45.684 329.346 45.78C329.262 45.864 329.154 45.906 329.022 45.906H323.676V48.408H329.562C329.694 48.408 329.802 48.45 329.886 48.534C329.97 48.618 330.012 48.726 330.012 48.858V50.55C330.012 50.67 329.97 50.778 329.886 50.874C329.802 50.958 329.694 51 329.562 51H321.012Z" fill="#ED4D47"/>
<rect x="504" y="35" width="2" height="20" fill="#EE4D47"/>
<rect x="515" y="44" width="2" height="20" transform="rotate(90 515 44)" fill="#EE4D47"/>
</svg>
